<svg width="130" height="130" viewBox="0 0 130 130" fill="none" xmlns="http://www.w3.org/2000/svg">
<circle opacity="0.07" cx="65" cy="65" r="65" fill="#567DF4"/>
<circle cx="31" cy="30" r="2" fill="#4CE364"/>
<circle cx="115" cy="69" r="2" fill="#FFC700"/>
<circle cx="64" cy="117" r="2" fill="#567DF4"/>
<path d="M58.9402 25.5L36.4402 87L36.9402 88.5L71.9402 95.5L93.9402 32.5L58.9402 25.5Z" fill="url(#paint0_linear)"/>
<g opacity="0.7">
<path opacity="0.7" fill-rule="evenodd" clip-rule="evenodd" d="M95.622 31.6602C94.5794 30.6383 93.8639 30.2653 93.6021 30.1517C93.5273 30.1205 93.489 30.1075 93.489 30.1075L62.1019 24.0019C59.7825 23.5475 57.2489 24.9979 56.4307 27.2446L56.3116 27.5842L33.203 93.0013C33.0588 93.2957 33.0061 93.8298 33.0429 94.4695C33.15 96.287 33.9515 98.9664 35.2238 99.5457L68.3282 106.032C70.6588 106.488 73.2033 105.022 74.0076 102.761C74.0076 102.761 95.066 43.8206 97.8166 35.916C98.4095 34.2063 96.5845 32.5985 95.622 31.6602ZM38.4932 84.1698L57.5373 30.6493C58.2137 28.7433 60.3576 27.5098 62.3191 27.8942L89.0896 33.1392C91.0521 33.5255 92.096 35.3836 91.417 37.2872L72.3745 90.8081C71.6965 92.7137 69.5542 93.9475 67.5911 93.5629L40.8206 88.3178C38.8591 87.9335 37.8174 86.0741 38.4932 84.1698Z" fill="#567DF4"/>
</g>
<path fill-rule="evenodd" clip-rule="evenodd" d="M93.6015 30.1507C93.2872 29.9824 92.9355 29.8565 92.5545 29.7819L61.8558 23.7689C59.6951 23.3438 57.3342 24.7032 56.588 26.8006L56.43 27.2446L56.3107 27.5842L33.2069 92.5197C32.9679 93.1917 32.9237 93.8574 33.0425 94.4678C33.298 95.7633 34.3018 96.7997 35.7694 97.0873L66.4675 103.102C68.6294 103.524 70.9882 102.166 71.7359 100.069L95.1184 34.3497C95.7306 32.6246 95.0612 30.9349 93.6015 30.1507ZM91.4163 37.286L72.3739 90.8065C71.6957 92.7126 69.5533 93.9457 67.59 93.561L40.8199 88.3161C38.8596 87.932 37.8158 86.0728 38.4919 84.1681L57.5373 30.6482C58.2134 28.7434 60.3579 27.5089 62.3182 27.893L89.0883 33.138C91.051 33.5243 92.0954 35.3818 91.4163 37.286Z" fill="white"/>
<path fill-rule="evenodd" clip-rule="evenodd" d="M54.0743 91.9036C55.427 92.5444 55.7811 94.323 54.8672 95.8763C53.9533 97.4297 52.1168 98.1706 50.764 97.5299C49.4113 96.8891 49.0572 95.1106 49.9711 93.5572C50.885 92.0038 52.7215 91.2629 54.0743 91.9036Z" fill="url(#paint1_linear)"/>
<defs>
<linearGradient id="paint0_linear" x1="38.5" y1="86.5" x2="91.5" y2="34" gradientUnits="userSpaceOnUse">
<stop stop-color="#22215B"/>
<stop offset="1" stop-color="#567DF4"/>
</linearGradient>
<linearGradient id="paint1_linear" x1="55.4977" y1="89.4844" x2="51.5176" y2="97.8868" gradientUnits="userSpaceOnUse">
<stop stop-color="#22215B"/>
<stop offset="1" stop-color="#567DF4"/>
</linearGradient>
</defs>
</svg>
