<svg width="16" height="24" viewBox="0 0 16 24" fill="none" xmlns="http://www.w3.org/2000/svg">
<path d="M12.2329 0.755913H3.85058C2.21143 0.755913 0.877838 2.06661 0.877838 3.67762V20.918C0.877838 22.529 2.21143 23.8397 3.85058 23.8397H12.233C13.8721 23.8397 15.2057 22.529 15.2057 20.918V3.67762C15.2057 2.06661 13.8721 0.755913 12.2329 0.755913V0.755913ZM9.95762 2.21396L9.81478 2.61689C9.76068 2.76944 9.6139 2.87191 9.44956 2.87191H6.63393C6.46959 2.87191 6.32281 2.76944 6.26876 2.61693L6.12587 2.21396H9.95762ZM13.7221 20.918C13.7221 21.7251 13.0541 22.3816 12.2329 22.3816H3.85058C3.0294 22.3816 2.36136 21.7251 2.36136 20.918V3.67762C2.36136 2.87054 3.0294 2.21396 3.85058 2.21396H4.55488L4.86785 3.09672C5.12941 3.83431 5.83914 4.32992 6.63393 4.32992H9.44956C10.2444 4.32992 10.9541 3.83431 11.2156 3.09668L11.5286 2.21396H12.2329C13.0541 2.21396 13.7221 2.87054 13.7221 3.67762V20.918Z" fill="#567DF4"/>
</svg>
