<svg width="15" height="25" viewBox="0 0 15 25" fill="none" xmlns="http://www.w3.org/2000/svg">
<path d="M5.3614 1.71131C5.3614 1.29635 5.02277 0.959921 4.60501 0.959921L0.770869 0.959921C0.353106 0.959921 0.0144796 1.29635 0.0144796 1.71131L0.0144806 24.0883C0.0144806 24.5033 0.353107 24.8397 0.77087 24.8397L4.60501 24.8397C5.02277 24.8397 5.3614 24.5033 5.3614 24.0883C5.3614 23.093 6.1765 22.2833 7.17844 22.2833C8.18037 22.2833 8.99538 23.093 8.99538 24.0883C8.99538 24.5033 9.334 24.8397 9.75177 24.8397L13.586 24.8397C14.0037 24.8397 14.3423 24.5033 14.3423 24.0883L14.3423 1.71131C14.3423 1.29635 14.0037 0.95992 13.586 0.95992L9.75177 0.95992C9.334 0.95992 8.99538 1.29635 8.99538 1.71131C8.99538 2.70657 8.18032 3.51628 7.17839 3.51628C6.17646 3.51628 5.3614 2.70657 5.3614 1.71131ZM10.4215 23.3369C10.0781 21.8738 8.75433 20.7806 7.17839 20.7806C5.60245 20.7806 4.27872 21.8738 3.93527 23.3369L1.52721 23.3369L1.52721 17.7044L12.8296 17.7044L12.8296 23.3369L10.4215 23.3369ZM10.4215 2.46269L12.8296 2.46269L12.8296 16.2017L1.52721 16.2017L1.52721 2.46269L3.93527 2.46269C4.27872 3.92578 5.6025 5.01905 7.17844 5.01905C8.75437 5.01905 10.0781 3.92578 10.4215 2.46269Z" fill="#567DF4"/>
</svg>
