<svg width="210" height="36" viewBox="0 0 210 36" fill="none" xmlns="http://www.w3.org/2000/svg">
<path opacity="0.6" d="M0.743938 12V0.608H7.94394V1.696H2.03994V5.664H7.62394V6.768H2.03994V10.912H7.94394V12H0.743938ZM9.99019 12V6.208C9.99019 5.83467 9.97952 5.46133 9.95819 5.088C9.94752 4.704 9.91552 4.32533 9.86219 3.952H11.0942L11.2382 5.616L11.0782 5.744C11.3022 5.09333 11.6755 4.60267 12.1982 4.272C12.7209 3.93067 13.3235 3.76 14.0062 3.76C15.9369 3.76 16.9022 4.82133 16.9022 6.944V12H15.6062V7.008C15.6062 6.26133 15.4569 5.71733 15.1582 5.376C14.8595 5.024 14.3902 4.848 13.7502 4.848C13.0035 4.848 12.4062 5.07733 11.9582 5.536C11.5102 5.99467 11.2862 6.61333 11.2862 7.392V12H9.99019ZM18.2136 4.976V3.952H23.3816V4.976H18.2136ZM23.3496 10.848V11.952C23.1682 12.0053 22.9869 12.0427 22.8056 12.064C22.6349 12.096 22.4429 12.112 22.2296 12.112C21.4829 12.112 20.8856 11.8987 20.4376 11.472C20.0002 11.0453 19.7816 10.4053 19.7816 9.552V1.888L21.0776 1.424V9.376C21.0776 9.80267 21.1362 10.1333 21.2536 10.368C21.3816 10.6027 21.5522 10.768 21.7656 10.864C21.9789 10.9493 22.2189 10.992 22.4856 10.992C22.6456 10.992 22.7896 10.9813 22.9176 10.96C23.0456 10.9387 23.1896 10.9013 23.3496 10.848ZM31.5353 11.04C31.1833 11.3707 30.73 11.632 30.1753 11.824C29.6313 12.016 29.0713 12.112 28.4953 12.112C27.6633 12.112 26.9433 11.9467 26.3353 11.616C25.738 11.2853 25.274 10.8107 24.9433 10.192C24.6233 9.56267 24.4633 8.816 24.4633 7.952C24.4633 7.12 24.6233 6.38933 24.9433 5.76C25.2633 5.13067 25.706 4.64 26.2713 4.288C26.8473 3.936 27.5086 3.76 28.2553 3.76C28.97 3.76 29.5833 3.92 30.0953 4.24C30.6073 4.54933 30.9966 4.99733 31.2633 5.584C31.5406 6.17067 31.6793 6.87467 31.6793 7.696V7.936H25.5993V7.088H30.9433L30.5273 7.68C30.5486 6.74133 30.362 6.02133 29.9673 5.52C29.5833 5.01867 29.018 4.768 28.2713 4.768C27.4926 4.768 26.8793 5.04533 26.4313 5.6C25.994 6.144 25.7753 6.90133 25.7753 7.872C25.7753 8.91733 26.0046 9.70667 26.4633 10.24C26.9326 10.7733 27.6153 11.04 28.5113 11.04C28.9806 11.04 29.4286 10.9653 29.8553 10.816C30.2926 10.656 30.7086 10.416 31.1033 10.096L31.5353 11.04ZM33.6464 12V6.208C33.6464 5.83467 33.6358 5.46133 33.6144 5.088C33.6038 4.704 33.5718 4.32533 33.5184 3.952H34.7504L34.9264 5.936L34.7504 5.888C34.8998 5.184 35.2198 4.656 35.7104 4.304C36.2118 3.94133 36.7718 3.76 37.3904 3.76C37.5291 3.76 37.6571 3.77067 37.7744 3.792C37.9024 3.80267 38.0198 3.824 38.1264 3.856L38.0944 5.04C37.8491 4.95467 37.5664 4.912 37.2464 4.912C36.6918 4.912 36.2438 5.03467 35.9024 5.28C35.5718 5.52533 35.3264 5.84 35.1664 6.224C35.0171 6.59733 34.9424 6.992 34.9424 7.408V12H33.6464ZM42.4792 4.976V3.952H47.6472V4.976H42.4792ZM47.6152 10.848V11.952C47.4339 12.0053 47.2525 12.0427 47.0712 12.064C46.9005 12.096 46.7085 12.112 46.4952 12.112C45.7485 12.112 45.1512 11.8987 44.7032 11.472C44.2659 11.0453 44.0472 10.4053 44.0472 9.552V1.888L45.3432 1.424V9.376C45.3432 9.80267 45.4019 10.1333 45.5192 10.368C45.6472 10.6027 45.8179 10.768 46.0312 10.864C46.2445 10.9493 46.4845 10.992 46.7512 10.992C46.9112 10.992 47.0552 10.9813 47.1832 10.96C47.3112 10.9387 47.4552 10.9013 47.6152 10.848ZM49.2089 12V0.223999H50.5049V5.584L50.2969 5.744C50.5209 5.09333 50.8943 4.60267 51.4169 4.272C51.9396 3.93067 52.5423 3.76 53.2249 3.76C55.1556 3.76 56.1209 4.82133 56.1209 6.944V12H54.8249V7.008C54.8249 6.26133 54.6756 5.71733 54.3769 5.376C54.0783 5.024 53.6089 4.848 52.9689 4.848C52.2223 4.848 51.6249 5.07733 51.1769 5.536C50.7289 5.99467 50.5049 6.61333 50.5049 7.392V12H49.2089ZM65.1603 11.04C64.8083 11.3707 64.355 11.632 63.8003 11.824C63.2563 12.016 62.6963 12.112 62.1203 12.112C61.2883 12.112 60.5683 11.9467 59.9603 11.616C59.363 11.2853 58.899 10.8107 58.5683 10.192C58.2483 9.56267 58.0883 8.816 58.0883 7.952C58.0883 7.12 58.2483 6.38933 58.5683 5.76C58.8883 5.13067 59.331 4.64 59.8963 4.288C60.4723 3.936 61.1336 3.76 61.8803 3.76C62.595 3.76 63.2083 3.92 63.7203 4.24C64.2323 4.54933 64.6216 4.99733 64.8883 5.584C65.1656 6.17067 65.3043 6.87467 65.3043 7.696V7.936H59.2243V7.088H64.5683L64.1523 7.68C64.1736 6.74133 63.987 6.02133 63.5923 5.52C63.2083 5.01867 62.643 4.768 61.8963 4.768C61.1176 4.768 60.5043 5.04533 60.0563 5.6C59.619 6.144 59.4003 6.90133 59.4003 7.872C59.4003 8.91733 59.6296 9.70667 60.0883 10.24C60.5576 10.7733 61.2403 11.04 62.1363 11.04C62.6056 11.04 63.0536 10.9653 63.4803 10.816C63.9176 10.656 64.3336 10.416 64.7283 10.096L65.1603 11.04ZM76.2273 12V2.256H76.6273L71.8913 9.088L71.9073 8.432H79.2673V9.52H70.9793V8.528L76.4673 0.608H77.5393V12H76.2273ZM92.2969 12H91.0169V9.84L91.2089 10.016C91.0276 10.688 90.6809 11.2053 90.1689 11.568C89.6569 11.9307 89.0329 12.112 88.2969 12.112C87.5929 12.112 86.9689 11.9413 86.4249 11.6C85.8916 11.248 85.4756 10.7573 85.1769 10.128C84.8783 9.488 84.7289 8.74667 84.7289 7.904C84.7289 7.06133 84.8729 6.33067 85.1609 5.712C85.4596 5.09333 85.8756 4.61333 86.4089 4.272C86.9529 3.93067 87.5823 3.76 88.2969 3.76C89.0329 3.76 89.6569 3.94667 90.1689 4.32C90.6809 4.68267 91.0276 5.19467 91.2089 5.856L91.0009 6.016V0.223999H92.2969V12ZM88.5529 11.04C89.3316 11.04 89.9343 10.7733 90.3609 10.24C90.7983 9.696 91.0169 8.928 91.0169 7.936C91.0169 6.95467 90.8036 6.19733 90.3769 5.664C89.9503 5.12 89.3423 4.848 88.5529 4.848C87.7636 4.848 87.1449 5.11467 86.6969 5.648C86.2596 6.18133 86.0409 6.93333 86.0409 7.904C86.0409 8.896 86.2596 9.66933 86.6969 10.224C87.1449 10.768 87.7636 11.04 88.5529 11.04ZM94.8027 12V3.952H96.0987V12H94.8027ZM94.6747 0.544H96.2587V2.016H94.6747V0.544ZM102.151 15.568C100.935 15.568 99.8792 15.2907 98.9832 14.736L99.2072 13.68C99.7085 13.968 100.183 14.176 100.631 14.304C101.079 14.432 101.586 14.496 102.151 14.496C102.919 14.496 103.501 14.288 103.895 13.872C104.301 13.4667 104.503 12.8587 104.503 12.048V9.872L104.679 9.664C104.551 10.0907 104.349 10.464 104.071 10.784C103.805 11.0933 103.474 11.3333 103.079 11.504C102.685 11.6747 102.237 11.76 101.735 11.76C101.021 11.76 100.391 11.5947 99.8472 11.264C99.3139 10.9227 98.8925 10.4533 98.5832 9.856C98.2845 9.25867 98.1352 8.56 98.1352 7.76C98.1352 6.96 98.2845 6.26133 98.5832 5.664C98.8925 5.06667 99.3139 4.60267 99.8472 4.272C100.391 3.93067 101.021 3.76 101.735 3.76C102.482 3.76 103.111 3.94667 103.623 4.32C104.146 4.68267 104.498 5.19467 104.679 5.856L104.487 5.68V3.952H105.783V11.936C105.783 13.1413 105.474 14.048 104.855 14.656C104.247 15.264 103.346 15.568 102.151 15.568ZM101.991 10.672C102.77 10.672 103.378 10.416 103.815 9.904C104.263 9.38133 104.487 8.66667 104.487 7.76C104.487 6.85333 104.263 6.144 103.815 5.632C103.378 5.10933 102.77 4.848 101.991 4.848C101.202 4.848 100.578 5.10933 100.119 5.632C99.6712 6.144 99.4472 6.85333 99.4472 7.76C99.4472 8.67733 99.6712 9.392 100.119 9.904C100.578 10.416 101.202 10.672 101.991 10.672ZM108.271 12V3.952H109.567V12H108.271ZM108.143 0.544H109.727V2.016H108.143V0.544ZM110.948 4.976V3.952H116.116V4.976H110.948ZM116.084 10.848V11.952C115.903 12.0053 115.721 12.0427 115.54 12.064C115.369 12.096 115.177 12.112 114.964 12.112C114.217 12.112 113.62 11.8987 113.172 11.472C112.735 11.0453 112.516 10.4053 112.516 9.552V1.888L113.812 1.424V9.376C113.812 9.80267 113.871 10.1333 113.988 10.368C114.116 10.6027 114.287 10.768 114.5 10.864C114.713 10.9493 114.953 10.992 115.22 10.992C115.38 10.992 115.524 10.9813 115.652 10.96C115.78 10.9387 115.924 10.9013 116.084 10.848ZM125.226 12.112C124.436 12.112 123.754 11.9413 123.178 11.6C122.602 11.2587 122.154 10.7787 121.834 10.16C121.524 9.54133 121.37 8.81067 121.37 7.968C121.37 7.136 121.53 6.40533 121.85 5.776C122.17 5.136 122.623 4.64 123.21 4.288C123.796 3.936 124.49 3.76 125.29 3.76C125.834 3.76 126.356 3.856 126.858 4.048C127.37 4.22933 127.791 4.48533 128.122 4.816L127.69 5.776C127.295 5.46667 126.906 5.23733 126.522 5.088C126.148 4.928 125.759 4.848 125.354 4.848C124.543 4.848 123.898 5.12 123.418 5.664C122.948 6.208 122.714 6.976 122.714 7.968C122.714 8.94933 122.948 9.70667 123.418 10.24C123.887 10.7733 124.532 11.04 125.354 11.04C125.748 11.04 126.138 10.9653 126.522 10.816C126.906 10.656 127.295 10.4213 127.69 10.112L128.122 11.072C127.78 11.392 127.348 11.648 126.826 11.84C126.314 12.0213 125.78 12.112 125.226 12.112ZM133.099 12.112C132.331 12.112 131.659 11.9413 131.083 11.6C130.518 11.2587 130.075 10.7787 129.755 10.16C129.446 9.53067 129.291 8.78933 129.291 7.936C129.291 7.09333 129.446 6.35733 129.755 5.728C130.075 5.09867 130.518 4.61333 131.083 4.272C131.659 3.93067 132.331 3.76 133.099 3.76C133.867 3.76 134.534 3.93067 135.099 4.272C135.675 4.61333 136.118 5.09867 136.427 5.728C136.747 6.35733 136.907 7.09333 136.907 7.936C136.907 8.78933 136.747 9.53067 136.427 10.16C136.118 10.7787 135.675 11.2587 135.099 11.6C134.534 11.9413 133.867 12.112 133.099 12.112ZM133.099 11.04C133.889 11.04 134.497 10.7787 134.923 10.256C135.361 9.72267 135.579 8.94933 135.579 7.936C135.579 6.944 135.361 6.18133 134.923 5.648C134.486 5.11467 133.878 4.848 133.099 4.848C132.321 4.848 131.707 5.11467 131.259 5.648C130.822 6.18133 130.603 6.944 130.603 7.936C130.603 8.94933 130.817 9.72267 131.243 10.256C131.681 10.7787 132.299 11.04 133.099 11.04ZM146.016 12H144.736V9.84L144.928 10.016C144.746 10.688 144.4 11.2053 143.888 11.568C143.376 11.9307 142.752 12.112 142.016 12.112C141.312 12.112 140.688 11.9413 140.144 11.6C139.61 11.248 139.194 10.7573 138.896 10.128C138.597 9.488 138.448 8.74667 138.448 7.904C138.448 7.06133 138.592 6.33067 138.88 5.712C139.178 5.09333 139.594 4.61333 140.128 4.272C140.672 3.93067 141.301 3.76 142.016 3.76C142.752 3.76 143.376 3.94667 143.888 4.32C144.4 4.68267 144.746 5.19467 144.928 5.856L144.72 6.016V0.223999H146.016V12ZM142.272 11.04C143.05 11.04 143.653 10.7733 144.08 10.24C144.517 9.696 144.736 8.928 144.736 7.936C144.736 6.95467 144.522 6.19733 144.096 5.664C143.669 5.12 143.061 4.848 142.272 4.848C141.482 4.848 140.864 5.11467 140.416 5.648C139.978 6.18133 139.76 6.93333 139.76 7.904C139.76 8.896 139.978 9.66933 140.416 10.224C140.864 10.768 141.482 11.04 142.272 11.04ZM155.113 11.04C154.761 11.3707 154.308 11.632 153.753 11.824C153.209 12.016 152.649 12.112 152.073 12.112C151.241 12.112 150.521 11.9467 149.913 11.616C149.316 11.2853 148.852 10.8107 148.521 10.192C148.201 9.56267 148.041 8.816 148.041 7.952C148.041 7.12 148.201 6.38933 148.521 5.76C148.841 5.13067 149.284 4.64 149.849 4.288C150.425 3.936 151.087 3.76 151.833 3.76C152.548 3.76 153.161 3.92 153.673 4.24C154.185 4.54933 154.575 4.99733 154.841 5.584C155.119 6.17067 155.257 6.87467 155.257 7.696V7.936H149.177V7.088H154.521L154.105 7.68C154.127 6.74133 153.94 6.02133 153.545 5.52C153.161 5.01867 152.596 4.768 151.849 4.768C151.071 4.768 150.457 5.04533 150.009 5.6C149.572 6.144 149.353 6.90133 149.353 7.872C149.353 8.91733 149.583 9.70667 150.041 10.24C150.511 10.7733 151.193 11.04 152.089 11.04C152.559 11.04 153.007 10.9653 153.433 10.816C153.871 10.656 154.287 10.416 154.681 10.096L155.113 11.04ZM164.116 12.112C162.762 12.112 161.69 11.7653 160.9 11.072L161.332 10.112C161.759 10.4427 162.196 10.688 162.644 10.848C163.103 10.9973 163.61 11.072 164.164 11.072C164.772 11.072 165.231 10.9707 165.54 10.768C165.86 10.5547 166.02 10.2507 166.02 9.856C166.02 9.536 165.914 9.28533 165.7 9.104C165.487 8.912 165.135 8.75733 164.644 8.64L163.284 8.32C162.612 8.17067 162.09 7.904 161.716 7.52C161.354 7.136 161.172 6.67733 161.172 6.144C161.172 5.67467 161.3 5.264 161.556 4.912C161.812 4.54933 162.17 4.26667 162.628 4.064C163.087 3.86133 163.631 3.76 164.26 3.76C164.826 3.76 165.359 3.85067 165.86 4.032C166.362 4.21333 166.783 4.47467 167.124 4.816L166.692 5.76C166.308 5.44 165.914 5.20533 165.508 5.056C165.114 4.896 164.698 4.816 164.26 4.816C163.684 4.816 163.236 4.928 162.916 5.152C162.607 5.376 162.452 5.68 162.452 6.064C162.452 6.39467 162.548 6.656 162.74 6.848C162.943 7.04 163.263 7.18933 163.7 7.296L165.06 7.632C165.818 7.792 166.372 8.05867 166.724 8.432C167.087 8.79467 167.268 9.25867 167.268 9.824C167.268 10.5173 166.986 11.072 166.42 11.488C165.855 11.904 165.087 12.112 164.116 12.112ZM175.926 11.04C175.574 11.3707 175.121 11.632 174.566 11.824C174.022 12.016 173.462 12.112 172.886 12.112C172.054 12.112 171.334 11.9467 170.726 11.616C170.129 11.2853 169.665 10.8107 169.334 10.192C169.014 9.56267 168.854 8.816 168.854 7.952C168.854 7.12 169.014 6.38933 169.334 5.76C169.654 5.13067 170.097 4.64 170.662 4.288C171.238 3.936 171.899 3.76 172.646 3.76C173.361 3.76 173.974 3.92 174.486 4.24C174.998 4.54933 175.387 4.99733 175.654 5.584C175.931 6.17067 176.07 6.87467 176.07 7.696V7.936H169.99V7.088H175.334L174.918 7.68C174.939 6.74133 174.753 6.02133 174.358 5.52C173.974 5.01867 173.409 4.768 172.662 4.768C171.883 4.768 171.27 5.04533 170.822 5.6C170.385 6.144 170.166 6.90133 170.166 7.872C170.166 8.91733 170.395 9.70667 170.854 10.24C171.323 10.7733 172.006 11.04 172.902 11.04C173.371 11.04 173.819 10.9653 174.246 10.816C174.683 10.656 175.099 10.416 175.494 10.096L175.926 11.04ZM178.037 12V6.208C178.037 5.83467 178.026 5.46133 178.005 5.088C177.994 4.704 177.962 4.32533 177.909 3.952H179.141L179.285 5.616L179.125 5.744C179.349 5.09333 179.722 4.60267 180.245 4.272C180.768 3.93067 181.37 3.76 182.053 3.76C183.984 3.76 184.949 4.82133 184.949 6.944V12H183.653V7.008C183.653 6.26133 183.504 5.71733 183.205 5.376C182.906 5.024 182.437 4.848 181.797 4.848C181.05 4.848 180.453 5.07733 180.005 5.536C179.557 5.99467 179.333 6.61333 179.333 7.392V12H178.037ZM186.26 4.976V3.952H191.428V4.976H186.26ZM191.396 10.848V11.952C191.215 12.0053 191.034 12.0427 190.852 12.064C190.682 12.096 190.49 12.112 190.276 12.112C189.53 12.112 188.932 11.8987 188.484 11.472C188.047 11.0453 187.828 10.4053 187.828 9.552V1.888L189.124 1.424V9.376C189.124 9.80267 189.183 10.1333 189.3 10.368C189.428 10.6027 189.599 10.768 189.812 10.864C190.026 10.9493 190.266 10.992 190.532 10.992C190.692 10.992 190.836 10.9813 190.964 10.96C191.092 10.9387 191.236 10.9013 191.396 10.848ZM196.026 4.976V3.952H201.194V4.976H196.026ZM201.162 10.848V11.952C200.981 12.0053 200.799 12.0427 200.618 12.064C200.447 12.096 200.255 12.112 200.042 12.112C199.295 12.112 198.698 11.8987 198.25 11.472C197.813 11.0453 197.594 10.4053 197.594 9.552V1.888L198.89 1.424V9.376C198.89 9.80267 198.949 10.1333 199.066 10.368C199.194 10.6027 199.365 10.768 199.578 10.864C199.791 10.9493 200.031 10.992 200.298 10.992C200.458 10.992 200.602 10.9813 200.73 10.96C200.858 10.9387 201.002 10.9013 201.162 10.848ZM206.084 12.112C205.316 12.112 204.644 11.9413 204.068 11.6C203.502 11.2587 203.06 10.7787 202.74 10.16C202.43 9.53067 202.276 8.78933 202.276 7.936C202.276 7.09333 202.43 6.35733 202.74 5.728C203.06 5.09867 203.502 4.61333 204.068 4.272C204.644 3.93067 205.316 3.76 206.084 3.76C206.852 3.76 207.518 3.93067 208.084 4.272C208.66 4.61333 209.102 5.09867 209.412 5.728C209.732 6.35733 209.892 7.09333 209.892 7.936C209.892 8.78933 209.732 9.53067 209.412 10.16C209.102 10.7787 208.66 11.2587 208.084 11.6C207.518 11.9413 206.852 12.112 206.084 12.112ZM206.084 11.04C206.873 11.04 207.481 10.7787 207.908 10.256C208.345 9.72267 208.564 8.94933 208.564 7.936C208.564 6.944 208.345 6.18133 207.908 5.648C207.47 5.11467 206.862 4.848 206.084 4.848C205.305 4.848 204.692 5.11467 204.244 5.648C203.806 6.18133 203.588 6.944 203.588 7.936C203.588 8.94933 203.801 9.72267 204.228 10.256C204.665 10.7787 205.284 11.04 206.084 11.04ZM32.4499 35.632L32.1779 34.624C32.6686 34.5067 33.0793 34.368 33.4099 34.208C33.7513 34.0587 34.0339 33.8613 34.2579 33.616C34.4926 33.3707 34.6953 33.0453 34.8659 32.64L35.3779 31.456L35.6659 31.056L38.6099 23.952H39.9059L36.1459 32.736C35.8579 33.3867 35.5326 33.904 35.1699 34.288C34.8073 34.6827 34.3966 34.9813 33.9379 35.184C33.4899 35.3867 32.9939 35.536 32.4499 35.632ZM35.3939 32.416L31.7779 23.952H33.1379L36.0499 31.056L35.3939 32.416ZM44.5682 32.112C43.8002 32.112 43.1282 31.9413 42.5522 31.6C41.9869 31.2587 41.5442 30.7787 41.2242 30.16C40.9149 29.5307 40.7602 28.7893 40.7602 27.936C40.7602 27.0933 40.9149 26.3573 41.2242 25.728C41.5442 25.0987 41.9869 24.6133 42.5522 24.272C43.1282 23.9307 43.8002 23.76 44.5682 23.76C45.3362 23.76 46.0029 23.9307 46.5682 24.272C47.1442 24.6133 47.5869 25.0987 47.8962 25.728C48.2162 26.3573 48.3762 27.0933 48.3762 27.936C48.3762 28.7893 48.2162 29.5307 47.8962 30.16C47.5869 30.7787 47.1442 31.2587 46.5682 31.6C46.0029 31.9413 45.3362 32.112 44.5682 32.112ZM44.5682 31.04C45.3575 31.04 45.9655 30.7787 46.3922 30.256C46.8295 29.7227 47.0482 28.9493 47.0482 27.936C47.0482 26.944 46.8295 26.1813 46.3922 25.648C45.9549 25.1147 45.3469 24.848 44.5682 24.848C43.7895 24.848 43.1762 25.1147 42.7282 25.648C42.2909 26.1813 42.0722 26.944 42.0722 27.936C42.0722 28.9493 42.2855 29.7227 42.7122 30.256C43.1495 30.7787 43.7682 31.04 44.5682 31.04ZM53.2444 32.112C52.2844 32.112 51.5591 31.8453 51.0684 31.312C50.5884 30.7787 50.3484 29.9893 50.3484 28.944V23.952H51.6444V28.912C51.6444 29.6373 51.7938 30.1707 52.0924 30.512C52.3911 30.8533 52.8444 31.024 53.4524 31.024C54.1671 31.024 54.7431 30.7947 55.1804 30.336C55.6178 29.8773 55.8364 29.264 55.8364 28.496V23.952H57.1324V32H55.8684V30.256L56.0604 30.16C55.8471 30.8 55.4844 31.2853 54.9724 31.616C54.4711 31.9467 53.8951 32.112 53.2444 32.112ZM59.6308 32V26.208C59.6308 25.8347 59.6201 25.4613 59.5988 25.088C59.5881 24.704 59.5561 24.3253 59.5028 23.952H60.7348L60.9108 25.936L60.7348 25.888C60.8841 25.184 61.2041 24.656 61.6948 24.304C62.1961 23.9413 62.7561 23.76 63.3748 23.76C63.5135 23.76 63.6415 23.7707 63.7588 23.792C63.8868 23.8027 64.0041 23.824 64.1108 23.856L64.0788 25.04C63.8335 24.9547 63.5508 24.912 63.2308 24.912C62.6761 24.912 62.2281 25.0347 61.8868 25.28C61.5561 25.5253 61.3108 25.84 61.1508 26.224C61.0015 26.5973 60.9268 26.992 60.9268 27.408V32H59.6308ZM69.5996 32V26.208C69.5996 25.8347 69.5889 25.4613 69.5676 25.088C69.5569 24.704 69.5249 24.3253 69.4716 23.952H70.7036L70.8476 25.616L70.6876 25.728C70.8796 25.0987 71.2102 24.6133 71.6796 24.272C72.1596 23.9307 72.7249 23.76 73.3756 23.76C74.1542 23.76 74.7569 23.952 75.1836 24.336C75.6209 24.72 75.8982 25.3067 76.0156 26.096L75.6316 25.888C75.8022 25.2373 76.1436 24.72 76.6556 24.336C77.1782 23.952 77.8022 23.76 78.5276 23.76C79.4129 23.76 80.0796 24.0267 80.5276 24.56C80.9756 25.0827 81.1996 25.8773 81.1996 26.944V32H79.9036V27.008C79.9036 26.2613 79.7702 25.7173 79.5036 25.376C79.2369 25.024 78.8156 24.848 78.2396 24.848C77.5676 24.848 77.0342 25.0773 76.6396 25.536C76.2556 25.9947 76.0636 26.6187 76.0636 27.408V32H74.7676V27.008C74.7676 26.2613 74.6289 25.7173 74.3516 25.376C74.0849 25.024 73.6636 24.848 73.0876 24.848C72.4049 24.848 71.8662 25.0773 71.4716 25.536C71.0876 25.9947 70.8956 26.6187 70.8956 27.408V32H69.5996ZM86.9901 32.112C86.2221 32.112 85.5501 31.9413 84.9741 31.6C84.4087 31.2587 83.9661 30.7787 83.6461 30.16C83.3367 29.5307 83.1821 28.7893 83.1821 27.936C83.1821 27.0933 83.3367 26.3573 83.6461 25.728C83.9661 25.0987 84.4087 24.6133 84.9741 24.272C85.5501 23.9307 86.2221 23.76 86.9901 23.76C87.7581 23.76 88.4247 23.9307 88.9901 24.272C89.5661 24.6133 90.0087 25.0987 90.3181 25.728C90.6381 26.3573 90.7981 27.0933 90.7981 27.936C90.7981 28.7893 90.6381 29.5307 90.3181 30.16C90.0087 30.7787 89.5661 31.2587 88.9901 31.6C88.4247 31.9413 87.7581 32.112 86.9901 32.112ZM86.9901 31.04C87.7794 31.04 88.3874 30.7787 88.8141 30.256C89.2514 29.7227 89.4701 28.9493 89.4701 27.936C89.4701 26.944 89.2514 26.1813 88.8141 25.648C88.3767 25.1147 87.7687 24.848 86.9901 24.848C86.2114 24.848 85.5981 25.1147 85.1501 25.648C84.7127 26.1813 84.4941 26.944 84.4941 27.936C84.4941 28.9493 84.7074 29.7227 85.1341 30.256C85.5714 30.7787 86.1901 31.04 86.9901 31.04ZM92.8183 32V20.224H94.1143V26.016L93.9383 25.856C94.1196 25.1947 94.4663 24.6827 94.9783 24.32C95.4903 23.9467 96.109 23.76 96.8343 23.76C97.549 23.76 98.173 23.9307 98.7063 24.272C99.2396 24.6133 99.6556 25.0933 99.9543 25.712C100.264 26.3307 100.418 27.0613 100.418 27.904C100.418 28.7467 100.264 29.488 99.9543 30.128C99.6556 30.7573 99.2343 31.248 98.6903 31.6C98.157 31.9413 97.5383 32.112 96.8343 32.112C96.109 32.112 95.4903 31.9307 94.9783 31.568C94.4663 31.2053 94.1196 30.688 93.9383 30.016L94.1143 29.84V32H92.8183ZM96.5943 31.04C97.373 31.04 97.981 30.768 98.4183 30.224C98.8556 29.6693 99.0743 28.896 99.0743 27.904C99.0743 26.9333 98.8556 26.1813 98.4183 25.648C97.981 25.1147 97.373 24.848 96.5943 24.848C95.7943 24.848 95.181 25.12 94.7543 25.664C94.3276 26.1973 94.1143 26.9547 94.1143 27.936C94.1143 28.928 94.3276 29.696 94.7543 30.24C95.181 30.7733 95.7943 31.04 96.5943 31.04ZM102.412 32V23.952H103.708V32H102.412ZM102.284 20.544H103.868V22.016H102.284V20.544ZM106.225 32V20.224H107.521V32H106.225ZM116.629 31.04C116.277 31.3707 115.824 31.632 115.269 31.824C114.725 32.016 114.165 32.112 113.589 32.112C112.757 32.112 112.037 31.9467 111.429 31.616C110.832 31.2853 110.368 30.8107 110.037 30.192C109.717 29.5627 109.557 28.816 109.557 27.952C109.557 27.12 109.717 26.3893 110.037 25.76C110.357 25.1307 110.8 24.64 111.365 24.288C111.941 23.936 112.602 23.76 113.349 23.76C114.064 23.76 114.677 23.92 115.189 24.24C115.701 24.5493 116.09 24.9973 116.357 25.584C116.634 26.1707 116.773 26.8747 116.773 27.696V27.936H110.693V27.088H116.037L115.621 27.68C115.642 26.7413 115.456 26.0213 115.061 25.52C114.677 25.0187 114.112 24.768 113.365 24.768C112.586 24.768 111.973 25.0453 111.525 25.6C111.088 26.144 110.869 26.9013 110.869 27.872C110.869 28.9173 111.098 29.7067 111.557 30.24C112.026 30.7733 112.709 31.04 113.605 31.04C114.074 31.04 114.522 30.9653 114.949 30.816C115.386 30.656 115.802 30.416 116.197 30.096L116.629 31.04ZM122.912 32V26.208C122.912 25.8347 122.901 25.4613 122.88 25.088C122.869 24.704 122.837 24.3253 122.784 23.952H124.016L124.16 25.616L124 25.744C124.224 25.0933 124.597 24.6027 125.12 24.272C125.643 23.9307 126.245 23.76 126.928 23.76C128.859 23.76 129.824 24.8213 129.824 26.944V32H128.528V27.008C128.528 26.2613 128.379 25.7173 128.08 25.376C127.781 25.024 127.312 24.848 126.672 24.848C125.925 24.848 125.328 25.0773 124.88 25.536C124.432 25.9947 124.208 26.6133 124.208 27.392V32H122.912ZM135.119 32.112C134.159 32.112 133.434 31.8453 132.943 31.312C132.463 30.7787 132.223 29.9893 132.223 28.944V23.952H133.519V28.912C133.519 29.6373 133.669 30.1707 133.967 30.512C134.266 30.8533 134.719 31.024 135.327 31.024C136.042 31.024 136.618 30.7947 137.055 30.336C137.493 29.8773 137.711 29.264 137.711 28.496V23.952H139.007V32H137.743V30.256L137.935 30.16C137.722 30.8 137.359 31.2853 136.847 31.616C136.346 31.9467 135.77 32.112 135.119 32.112ZM141.506 32V26.208C141.506 25.8347 141.495 25.4613 141.474 25.088C141.463 24.704 141.431 24.3253 141.378 23.952H142.61L142.754 25.616L142.594 25.728C142.786 25.0987 143.116 24.6133 143.586 24.272C144.066 23.9307 144.631 23.76 145.282 23.76C146.06 23.76 146.663 23.952 147.09 24.336C147.527 24.72 147.804 25.3067 147.922 26.096L147.538 25.888C147.708 25.2373 148.05 24.72 148.562 24.336C149.084 23.952 149.708 23.76 150.434 23.76C151.319 23.76 151.986 24.0267 152.434 24.56C152.882 25.0827 153.106 25.8773 153.106 26.944V32H151.81V27.008C151.81 26.2613 151.676 25.7173 151.41 25.376C151.143 25.024 150.722 24.848 150.146 24.848C149.474 24.848 148.94 25.0773 148.546 25.536C148.162 25.9947 147.97 26.6187 147.97 27.408V32H146.674V27.008C146.674 26.2613 146.535 25.7173 146.258 25.376C145.991 25.024 145.57 24.848 144.994 24.848C144.311 24.848 143.772 25.0773 143.378 25.536C142.994 25.9947 142.802 26.6187 142.802 27.408V32H141.506ZM155.568 32V20.224H156.864V26.016L156.688 25.856C156.87 25.1947 157.216 24.6827 157.728 24.32C158.24 23.9467 158.859 23.76 159.584 23.76C160.299 23.76 160.923 23.9307 161.456 24.272C161.99 24.6133 162.406 25.0933 162.704 25.712C163.014 26.3307 163.168 27.0613 163.168 27.904C163.168 28.7467 163.014 29.488 162.704 30.128C162.406 30.7573 161.984 31.248 161.44 31.6C160.907 31.9413 160.288 32.112 159.584 32.112C158.859 32.112 158.24 31.9307 157.728 31.568C157.216 31.2053 156.87 30.688 156.688 30.016L156.864 29.84V32H155.568ZM159.344 31.04C160.123 31.04 160.731 30.768 161.168 30.224C161.606 29.6693 161.824 28.896 161.824 27.904C161.824 26.9333 161.606 26.1813 161.168 25.648C160.731 25.1147 160.123 24.848 159.344 24.848C158.544 24.848 157.931 25.12 157.504 25.664C157.078 26.1973 156.864 26.9547 156.864 27.936C156.864 28.928 157.078 29.696 157.504 30.24C157.931 30.7733 158.544 31.04 159.344 31.04ZM171.754 31.04C171.402 31.3707 170.949 31.632 170.394 31.824C169.85 32.016 169.29 32.112 168.714 32.112C167.882 32.112 167.162 31.9467 166.554 31.616C165.957 31.2853 165.493 30.8107 165.162 30.192C164.842 29.5627 164.682 28.816 164.682 27.952C164.682 27.12 164.842 26.3893 165.162 25.76C165.482 25.1307 165.925 24.64 166.49 24.288C167.066 23.936 167.727 23.76 168.474 23.76C169.189 23.76 169.802 23.92 170.314 24.24C170.826 24.5493 171.215 24.9973 171.482 25.584C171.759 26.1707 171.898 26.8747 171.898 27.696V27.936H165.818V27.088H171.162L170.746 27.68C170.767 26.7413 170.581 26.0213 170.186 25.52C169.802 25.0187 169.237 24.768 168.49 24.768C167.711 24.768 167.098 25.0453 166.65 25.6C166.213 26.144 165.994 26.9013 165.994 27.872C165.994 28.9173 166.223 29.7067 166.682 30.24C167.151 30.7733 167.834 31.04 168.73 31.04C169.199 31.04 169.647 30.9653 170.074 30.816C170.511 30.656 170.927 30.416 171.322 30.096L171.754 31.04ZM173.865 32V26.208C173.865 25.8347 173.855 25.4613 173.833 25.088C173.823 24.704 173.791 24.3253 173.737 23.952H174.969L175.145 25.936L174.969 25.888C175.119 25.184 175.439 24.656 175.929 24.304C176.431 23.9413 176.991 23.76 177.609 23.76C177.748 23.76 177.876 23.7707 177.993 23.792C178.121 23.8027 178.239 23.824 178.345 23.856L178.313 25.04C178.068 24.9547 177.785 24.912 177.465 24.912C176.911 24.912 176.463 25.0347 176.121 25.28C175.791 25.5253 175.545 25.84 175.385 26.224C175.236 26.5973 175.161 26.992 175.161 27.408V32H173.865Z" fill="#22215B"/>
</svg>
