<svg width="199" height="56" viewBox="0 0 199 56" fill="none" xmlns="http://www.w3.org/2000/svg">
<path d="M31.5446 45.88C31.5446 47.16 31.3046 48.34 30.8246 49.42C30.3446 50.54 29.5446 51.6 28.4246 52.6C27.3446 53.6 25.7646 54.38 23.6846 54.94C21.6046 55.54 19.1046 55.84 16.1846 55.84C12.1046 55.84 8.88461 55.4 6.52461 54.52C4.20461 53.64 2.60461 52.46 1.72461 50.98C0.884608 49.5 0.464608 47.54 0.464608 45.1H9.16461C9.32461 46.14 9.52461 46.9 9.76461 47.38C10.0046 47.86 10.6446 48.28 11.6846 48.64C12.7646 49.04 14.3246 49.24 16.3646 49.24C20.7646 49.24 22.9646 48.28 22.9646 46.36C22.9646 45.84 22.4246 45.38 21.3446 44.98C20.2646 44.62 18.1246 44.16 14.9246 43.6C14.4046 43.52 13.5446 43.38 12.3446 43.18C11.1846 42.98 10.3246 42.84 9.76461 42.76C9.24461 42.64 8.48461 42.48 7.48461 42.28C6.52461 42.04 5.78461 41.82 5.26461 41.62C4.78461 41.42 4.20461 41.14 3.52461 40.78C2.84461 40.42 2.34461 40.04 2.02461 39.64C1.70461 39.2 1.42461 38.7 1.18461 38.14C0.944608 37.54 0.824608 36.88 0.824608 36.16C0.824608 34.76 1.44461 33.62 2.68461 32.74C3.92461 31.82 5.52461 31.2 7.48461 30.88C5.52461 30.2 4.02461 29.12 2.98461 27.64C1.98461 26.12 1.48461 24.56 1.48461 22.96C1.48461 21.44 1.70461 20.1 2.14461 18.94C2.58461 17.74 3.34461 16.62 4.42461 15.58C5.50461 14.5 7.10461 13.68 9.22461 13.12C11.3846 12.56 14.0246 12.28 17.1446 12.28H30.8246V15.88L25.8446 17.68C26.8446 18.08 27.7246 18.9 28.4846 20.14C29.2446 21.34 29.6246 22.64 29.6246 24.04C29.6246 27.2 28.5646 29.7 26.4446 31.54C24.3246 33.34 20.6646 34.24 15.4646 34.24C13.6246 34.24 12.2246 34.32 11.2646 34.48C10.3046 34.6 9.72461 34.74 9.52461 34.9C9.32461 35.06 9.22461 35.28 9.22461 35.56C9.22461 35.96 9.50461 36.24 10.0646 36.4C10.8646 36.64 13.5846 37.06 18.2246 37.66C22.7846 38.3 25.8646 39 27.4646 39.76C30.1846 41.04 31.5446 43.08 31.5446 45.88ZM20.9846 23.38C20.9846 21.94 20.6046 20.86 19.8446 20.14C19.0846 19.38 17.6246 19 15.4646 19C13.3846 19 11.9446 19.38 11.1446 20.14C10.3446 20.86 9.94461 21.94 9.94461 23.38C9.94461 24.9 10.3446 26.06 11.1446 26.86C11.9446 27.66 13.4046 28.06 15.5246 28.06C17.6046 28.06 19.0246 27.66 19.7846 26.86C20.5846 26.06 20.9846 24.9 20.9846 23.38ZM40.9599 43H32.6799V12.28H40.9599V43ZM41.9799 4.9C41.9799 6.46 41.5399 7.56 40.6599 8.2C39.7799 8.8 38.4999 9.1 36.8199 9.1C35.0999 9.1 33.7799 8.8 32.8599 8.2C31.9799 7.6 31.5399 6.5 31.5399 4.9C31.5399 3.3 31.9999 2.2 32.9199 1.6C33.8399 0.959998 35.1399 0.639998 36.8199 0.639998C38.4999 0.639998 39.7799 0.959998 40.6599 1.6C41.5399 2.2 41.9799 3.3 41.9799 4.9ZM75.0582 12.28L62.5782 43H52.8582L41.0982 12.28H50.2182L57.7782 35.38L65.5782 12.28H75.0582ZM102.539 33.7C102.219 36.58 100.959 38.94 98.7591 40.78C96.5591 42.58 93.1591 43.48 88.5591 43.48C78.3591 43.48 73.2591 38.2 73.2591 27.64C73.2591 17.08 78.3191 11.8 88.4391 11.8C91.2391 11.8 93.6391 12.34 95.6391 13.42C97.6791 14.46 99.1991 15.9 100.199 17.74C101.239 19.58 101.939 21.6 102.299 23.8C102.659 25.96 102.719 28.32 102.479 30.88H81.6591C82.0591 35.04 84.2591 37.12 88.2591 37.12C91.2191 37.12 93.0791 35.98 93.8391 33.7H102.539ZM93.9591 24.58C93.9591 22.74 93.4391 21.22 92.3991 20.02C91.3991 18.82 89.8591 18.22 87.7791 18.22C85.8191 18.22 84.3191 18.82 83.2791 20.02C82.2791 21.18 81.7391 22.7 81.6591 24.58H93.9591ZM121.792 19.3C118.552 18.94 116.352 19.46 115.192 20.86C114.032 22.22 113.452 24.18 113.452 26.74V43H105.232V12.28H108.652L110.572 17.14C113.212 13.18 116.952 11.44 121.792 11.92V19.3ZM139.724 19.3C136.484 18.94 134.284 19.46 133.124 20.86C131.964 22.22 131.384 24.18 131.384 26.74V43H123.164V12.28H126.584L128.504 17.14C131.144 13.18 134.884 11.44 139.724 11.92V19.3ZM157.656 19.3C154.416 18.94 152.216 19.46 151.056 20.86C149.896 22.22 149.316 24.18 149.316 26.74V43H141.096V12.28H144.516L146.436 17.14C149.076 13.18 152.816 11.44 157.656 11.92V19.3ZM186.268 33.64C186.268 36.32 185.108 38.64 182.788 40.6C180.508 42.52 177.068 43.48 172.468 43.48C167.268 43.48 163.448 42.5 161.008 40.54C158.568 38.54 157.348 35.56 157.348 31.6H165.448C165.448 33.28 166.008 34.62 167.128 35.62C168.248 36.62 169.968 37.12 172.288 37.12C174.288 37.12 175.768 36.8 176.728 36.16C177.688 35.48 178.168 34.76 178.168 34C178.168 33.08 177.468 32.38 176.068 31.9C174.708 31.38 173.048 30.96 171.088 30.64C169.128 30.32 167.148 29.92 165.148 29.44C163.188 28.92 161.488 28.02 160.048 26.74C158.648 25.46 157.928 23.82 157.888 21.82C157.888 18.82 159.008 16.4 161.248 14.56C163.488 12.72 166.968 11.8 171.688 11.8C180.808 11.8 185.368 15.58 185.368 23.14H177.688C177.528 21.42 176.988 20.14 176.068 19.3C175.188 18.46 173.648 18.04 171.448 18.04C169.568 18.04 168.188 18.36 167.308 19C166.468 19.64 166.048 20.4 166.048 21.28C166.048 21.96 166.548 22.52 167.548 22.96C168.548 23.36 169.788 23.66 171.268 23.86C172.788 24.02 174.408 24.32 176.128 24.76C177.888 25.16 179.508 25.66 180.988 26.26C182.508 26.82 183.768 27.74 184.768 29.02C185.768 30.26 186.268 31.8 186.268 33.64ZM198.216 38.86C198.216 41.94 196.376 43.48 192.696 43.48C190.856 43.48 189.456 43.16 188.496 42.52C187.536 41.84 187.056 40.62 187.056 38.86C187.056 37.1 187.536 35.9 188.496 35.26C189.456 34.58 190.856 34.24 192.696 34.24C194.496 34.24 195.856 34.58 196.776 35.26C197.736 35.9 198.216 37.1 198.216 38.86Z" fill="white"/>
</svg>
