<svg width="159" height="45" viewBox="0 0 159 45" fill="none" xmlns="http://www.w3.org/2000/svg">
<path d="M25.1357 36.304C25.1357 37.328 24.9437 38.272 24.5597 39.136C24.1757 40.032 23.5357 40.88 22.6397 41.68C21.7757 42.48 20.5117 43.104 18.8477 43.552C17.1837 44.032 15.1837 44.272 12.8477 44.272C9.58369 44.272 7.00769 43.92 5.11969 43.216C3.26369 42.512 1.98369 41.568 1.27969 40.384C0.607688 39.2 0.271688 37.632 0.271688 35.68H7.23169C7.35969 36.512 7.51969 37.12 7.71169 37.504C7.90369 37.888 8.41569 38.224 9.24769 38.512C10.1117 38.832 11.3597 38.992 12.9917 38.992C16.5117 38.992 18.2717 38.224 18.2717 36.688C18.2717 36.272 17.8397 35.904 16.9757 35.584C16.1117 35.296 14.3997 34.928 11.8397 34.48C11.4237 34.416 10.7357 34.304 9.77569 34.144C8.84769 33.984 8.15969 33.872 7.71169 33.808C7.29569 33.712 6.68769 33.584 5.88769 33.424C5.11969 33.232 4.52769 33.056 4.11169 32.896C3.72769 32.736 3.26369 32.512 2.71969 32.224C2.17569 31.936 1.77569 31.632 1.51969 31.312C1.26369 30.96 1.03969 30.56 0.847688 30.112C0.655688 29.632 0.559688 29.104 0.559688 28.528C0.559688 27.408 1.05569 26.496 2.04769 25.792C3.03969 25.056 4.31969 24.56 5.88769 24.304C4.31969 23.76 3.11969 22.896 2.28769 21.712C1.48769 20.496 1.08769 19.248 1.08769 17.968C1.08769 16.752 1.26369 15.68 1.61569 14.752C1.96769 13.792 2.57569 12.896 3.43969 12.064C4.30369 11.2 5.58369 10.544 7.27969 10.096C9.00769 9.648 11.1197 9.424 13.6157 9.424H24.5597V12.304L20.5757 13.744C21.3757 14.064 22.0797 14.72 22.6877 15.712C23.2957 16.672 23.5997 17.712 23.5997 18.832C23.5997 21.36 22.7517 23.36 21.0557 24.832C19.3597 26.272 16.4317 26.992 12.2717 26.992C10.7997 26.992 9.67969 27.056 8.91169 27.184C8.14369 27.28 7.67969 27.392 7.51969 27.52C7.35969 27.648 7.27969 27.824 7.27969 28.048C7.27969 28.368 7.50369 28.592 7.95169 28.72C8.59169 28.912 10.7677 29.248 14.4797 29.728C18.1277 30.24 20.5917 30.8 21.8717 31.408C24.0477 32.432 25.1357 34.064 25.1357 36.304ZM16.6877 18.304C16.6877 17.152 16.3837 16.288 15.7757 15.712C15.1677 15.104 13.9997 14.8 12.2717 14.8C10.6077 14.8 9.45569 15.104 8.81569 15.712C8.17569 16.288 7.85569 17.152 7.85569 18.304C7.85569 19.52 8.17569 20.448 8.81569 21.088C9.45569 21.728 10.6237 22.048 12.3197 22.048C13.9837 22.048 15.1197 21.728 15.7277 21.088C16.3677 20.448 16.6877 19.52 16.6877 18.304ZM32.6679 34H26.0439V9.424H32.6679V34ZM33.4839 3.52C33.4839 4.768 33.1319 5.648 32.4279 6.16C31.7239 6.64 30.6999 6.88 29.3559 6.88C27.9799 6.88 26.9239 6.64 26.1879 6.16C25.4839 5.68 25.1319 4.8 25.1319 3.52C25.1319 2.24 25.4999 1.36 26.2359 0.879997C26.9719 0.367998 28.0119 0.111999 29.3559 0.111999C30.6999 0.111999 31.7239 0.367998 32.4279 0.879997C33.1319 1.36 33.4839 2.24 33.4839 3.52ZM59.9466 9.424L49.9626 34H42.1866L32.7786 9.424H40.0746L46.1226 27.904L52.3626 9.424H59.9466ZM81.9313 26.56C81.6753 28.864 80.6673 30.752 78.9073 32.224C77.1473 33.664 74.4273 34.384 70.7473 34.384C62.5873 34.384 58.5073 30.16 58.5073 21.712C58.5073 13.264 62.5553 9.04 70.6513 9.04C72.8913 9.04 74.8113 9.472 76.4113 10.336C78.0433 11.168 79.2593 12.32 80.0593 13.792C80.8913 15.264 81.4513 16.88 81.7393 18.64C82.0273 20.368 82.0753 22.256 81.8833 24.304H65.2273C65.5473 27.632 67.3073 29.296 70.5073 29.296C72.8753 29.296 74.3633 28.384 74.9713 26.56H81.9313ZM75.0673 19.264C75.0673 17.792 74.6513 16.576 73.8193 15.616C73.0193 14.656 71.7873 14.176 70.1233 14.176C68.5553 14.176 67.3553 14.656 66.5233 15.616C65.7233 16.544 65.2913 17.76 65.2273 19.264H75.0673ZM97.3333 15.04C94.7413 14.752 92.9813 15.168 92.0533 16.288C91.1253 17.376 90.6613 18.944 90.6613 20.992V34H84.0853V9.424H86.8213L88.3573 13.312C90.4693 10.144 93.4613 8.752 97.3333 9.136V15.04ZM111.679 15.04C109.087 14.752 107.327 15.168 106.399 16.288C105.471 17.376 105.007 18.944 105.007 20.992V34H98.4309V9.424H101.167L102.703 13.312C104.815 10.144 107.807 8.752 111.679 9.136V15.04ZM126.025 15.04C123.433 14.752 121.673 15.168 120.745 16.288C119.817 17.376 119.353 18.944 119.353 20.992V34H112.777V9.424H115.513L117.049 13.312C119.161 10.144 122.153 8.752 126.025 9.136V15.04ZM148.914 26.512C148.914 28.656 147.986 30.512 146.13 32.08C144.306 33.616 141.554 34.384 137.874 34.384C133.714 34.384 130.658 33.6 128.706 32.032C126.754 30.432 125.778 28.048 125.778 24.88H132.258C132.258 26.224 132.706 27.296 133.602 28.096C134.498 28.896 135.874 29.296 137.73 29.296C139.33 29.296 140.514 29.04 141.282 28.528C142.05 27.984 142.434 27.408 142.434 26.8C142.434 26.064 141.874 25.504 140.754 25.12C139.666 24.704 138.338 24.368 136.77 24.112C135.202 23.856 133.618 23.536 132.018 23.152C130.45 22.736 129.09 22.016 127.938 20.992C126.818 19.968 126.242 18.656 126.21 17.056C126.21 14.656 127.106 12.72 128.898 11.248C130.69 9.776 133.474 9.04 137.25 9.04C144.546 9.04 148.194 12.064 148.194 18.112H142.05C141.922 16.736 141.49 15.712 140.754 15.04C140.05 14.368 138.818 14.032 137.058 14.032C135.554 14.032 134.45 14.288 133.746 14.8C133.074 15.312 132.738 15.92 132.738 16.624C132.738 17.168 133.138 17.616 133.938 17.968C134.738 18.288 135.73 18.528 136.914 18.688C138.13 18.816 139.426 19.056 140.802 19.408C142.21 19.728 143.506 20.128 144.69 20.608C145.906 21.056 146.914 21.792 147.714 22.816C148.514 23.808 148.914 25.04 148.914 26.512Z" fill="#22215B"/>
<path d="M158.473 30.688C158.473 33.152 157.001 34.384 154.057 34.384C152.585 34.384 151.465 34.128 150.697 33.616C149.929 33.072 149.545 32.096 149.545 30.688C149.545 29.28 149.929 28.32 150.697 27.808C151.465 27.264 152.585 26.992 154.057 26.992C155.497 26.992 156.585 27.264 157.321 27.808C158.089 28.32 158.473 29.28 158.473 30.688Z" fill="#567DF4"/>
</svg>
