<svg width="414" height="137" viewBox="0 0 414 137" fill="none" xmlns="http://www.w3.org/2000/svg">
<path opacity="0.3" d="M-160 164.155C-157.769 162.509 -156.706 158.383 -155.83 155.798C-153.758 149.725 -151.917 144.024 -148.021 138.951C-134.289 121.078 -113.013 115.571 -91.9056 118.289C-65.0167 121.759 -42.3245 139.819 -14.7627 138.341C-5.8469 137.863 3.17511 135.34 10.3201 129.656C18.7932 122.919 22.9987 111.897 22.2284 100.796C21.3519 88.1541 11.294 78.177 6.93795 66.6772C2.13036 53.9823 2.15691 39.145 7.66396 26.7776C13.9236 12.7105 29.3823 3.6187 44.1769 0.900899C60.034 -2.01167 78.5207 2.14914 90.5619 13.224C109.084 30.2479 99.4777 55.0446 109.031 75.6716C117.15 93.2002 137.354 99.5299 155.46 97.2459C175.045 94.776 191.274 85.1707 205.316 70.8911C218.26 57.727 229.309 42.3851 243.9 31.1243C256.836 21.1384 271.533 13.7197 287.018 9.52351C321.3 0.245769 362.364 6.65519 391.139 29.1856C417.797 50.0605 434.726 83.1876 442.252 117.005C443.217 121.334 450.344 173.194 447.112 173.194C446.829 173.194 448.246 175 447.962 175L-160 164.155Z" fill="#698EFF"/>
<path opacity="0.05" d="M-14.1349 185.23C-9.86237 181.85 6.89243 181.788 12.2596 179.873C22.5084 176.209 31.8921 170.057 39.1396 161.919C56.1415 142.836 64.7572 109.117 94.4355 105.984C120.945 103.186 139.191 125.862 163.405 131.749C213.599 143.957 256.069 113.54 296.552 87.8803C345.88 56.6071 403.118 38.5123 457.161 71.745C497.097 96.3098 504 137.46 504 181.32L23.965 182.238C19.7719 182.238 13.7426 184.215 9.68195 184.992C5.24167 185.839 1.12799 186.837 -3.37408 186.828C-7.39944 186.819 -11.3277 187.472 -15 186.29C-14.8323 185.901 -14.541 185.548 -14.1349 185.23Z" fill="white"/>
</svg>
