<svg width="16" height="25" viewBox="0 0 16 25" fill="none" xmlns="http://www.w3.org/2000/svg">
<path d="M7.91708 12.8713C5.76166 12.8713 4.00809 14.6249 4.00809 16.7803C4.00809 18.9357 5.76166 20.6893 7.91708 20.6893C10.0725 20.6893 11.8261 18.9357 11.8261 16.7803C11.8261 14.6249 10.0725 12.8713 7.91708 12.8713ZM7.91708 19.219C6.57233 19.219 5.47836 18.125 5.47836 16.7803C5.47836 15.4356 6.57238 14.3416 7.91708 14.3416C9.26178 14.3416 10.3558 15.4356 10.3558 16.7803C10.3558 18.125 9.26182 19.219 7.91708 19.219Z" fill="#567DF4"/>
<path d="M14.5528 14.9147C14.0032 14.276 13.9855 14.2409 13.9142 13.3614C13.8614 12.7095 13.8015 11.9705 13.2642 11.4332C12.7269 10.8959 11.988 10.836 11.336 10.7832C10.4574 10.7119 10.4221 10.695 9.78265 10.1446C9.64468 10.0258 9.49687 9.89876 9.33762 9.77796L12.054 7.82544C12.2462 7.68733 12.3601 7.46514 12.3601 7.22851V1.69506C12.3601 1.28908 12.031 0.959923 11.6249 0.959923H4.20917C3.80315 0.959923 3.47404 1.28908 3.47404 1.69506V7.22851C3.47404 7.46514 3.58794 7.68733 3.78008 7.82544L6.4965 9.77796C6.07109 10.1006 5.67237 10.5178 5.37418 10.6415C4.74022 10.9044 3.39951 10.6037 2.57 11.4332C1.74091 12.2623 2.04066 13.6044 1.77826 14.2374C1.5353 14.8234 0.355133 15.5855 0.355133 16.7803C0.355133 17.973 1.53663 18.7406 1.77826 19.3231C2.04117 19.9575 1.7404 21.2978 2.56996 22.1274C3.39915 22.9566 4.74127 22.6566 5.37418 22.9192C5.95971 23.1619 6.72237 24.3422 7.91706 24.3422C9.10977 24.3422 9.87739 23.1607 10.4599 22.9192C11.0939 22.6562 12.4346 22.9569 13.2641 22.1274C14.0932 21.2984 13.7934 19.9563 14.0559 19.3232C14.2988 18.7373 15.479 17.975 15.479 16.7803C15.479 15.991 14.9654 15.3942 14.5528 14.9147ZM4.94431 2.43019H10.8898V6.85157L7.91706 8.98834L4.94431 6.85157V2.43019ZM13.4383 17.6869C12.6852 18.5621 12.5468 18.8712 12.4487 20.0803C12.4164 20.4798 12.3797 20.9326 12.2245 21.0877C12.0693 21.2429 11.6166 21.2796 11.2171 21.312C10.0127 21.4096 9.70128 21.5462 8.82357 22.3016C7.94931 23.054 7.88504 23.0542 7.0105 22.3016C6.13422 21.5475 5.82381 21.4098 4.61694 21.312C4.21749 21.2796 3.76469 21.2429 3.60953 21.0878C3.45442 20.9327 3.41771 20.4799 3.38536 20.0804C3.28777 18.8769 3.15163 18.5654 2.39573 17.6869C1.64341 16.8128 1.64309 16.7483 2.39573 15.8738C3.14952 14.9978 3.28741 14.688 3.38536 13.4803C3.41771 13.0808 3.45442 12.6281 3.60958 12.4729C3.76474 12.3178 4.21744 12.2811 4.61694 12.2487C5.82133 12.1511 6.13279 12.0144 7.0105 11.259C7.88481 10.5067 7.94908 10.5065 8.82357 11.259C9.69985 12.0132 10.0103 12.1508 11.2171 12.2487C11.6166 12.2811 12.0694 12.3178 12.2245 12.4729C12.3797 12.628 12.4164 13.0808 12.4487 13.4802C12.5463 14.6838 12.6824 14.9953 13.4383 15.8738C14.1907 16.7479 14.191 16.8124 13.4383 17.6869Z" fill="#567DF4"/>
</svg>
