<svg width="23" height="25" viewBox="0 0 23 25" fill="none" xmlns="http://www.w3.org/2000/svg">
<path d="M22.5934 6.28154C22.5934 5.97619 22.714 6.25627 19.611 1.31256C19.4732 1.09314 19.2323 0.959923 18.9733 0.959923H3.93527C3.67617 0.959923 3.43529 1.09314 3.29756 1.31256L0.429965 5.88124C0.26541 6.14343 0.314771 5.87027 0.314771 10.4407C0.314771 12.0287 1.42595 13.3612 2.91142 13.7039V24.1033C2.91142 24.5191 3.24853 24.8562 3.66432 24.8562H19.2442C19.66 24.8562 19.9971 24.5191 19.9971 24.1033V13.7039C21.4826 13.3612 22.5938 12.0287 22.5938 10.4407C22.5938 6.23707 22.5981 6.28074 22.5934 6.28154ZM7.01386 7.03439H10.7014V10.4407C10.7014 11.4574 9.87426 12.2845 8.85761 12.2845C7.84097 12.2845 7.01386 11.4574 7.01386 10.4407V7.03439ZM12.2072 7.03439H15.8947V10.4407C15.8947 11.4574 15.0676 12.2845 14.0509 12.2845C13.0343 12.2845 12.2071 11.4574 12.2071 10.4407V7.03439H12.2072ZM4.35162 2.46572H18.5569L20.4793 5.5286H2.42914L4.35162 2.46572ZM1.82057 10.4407V7.03439H5.50807V10.4407C5.50807 11.4574 4.68096 12.2845 3.66432 12.2845C2.65087 12.2845 1.82057 11.4606 1.82057 10.4407ZM13.7524 23.3504H9.15618V17.8236H13.7524V23.3504H13.7524ZM15.2582 23.3504V17.0707C15.2582 16.655 14.9211 16.3178 14.5053 16.3178H8.40329C7.9875 16.3178 7.65039 16.655 7.65039 17.0707V23.3504H4.41726V13.7048C5.15392 13.5348 5.79836 13.1211 6.26101 12.5536C7.60456 14.2016 10.1095 14.2031 11.4543 12.5536C12.7978 14.2015 15.3028 14.2031 16.6476 12.5536C17.1103 13.1211 17.7547 13.5348 18.4914 13.7048V23.3504H15.2582ZM21.088 10.4407C21.088 11.4574 20.2609 12.2845 19.2442 12.2845C18.2276 12.2845 17.4005 11.4574 17.4005 10.4407V7.03439H21.088V10.4407H21.088Z" fill="#567DF4"/>
</svg>
