<svg width="414" height="137" viewBox="0 0 414 137" fill="none" xmlns="http://www.w3.org/2000/svg">
<path opacity="0.3" d="M574 -27.1553C571.769 -25.5087 570.706 -21.3833 569.83 -18.7983C567.758 -12.7253 565.917 -7.02406 562.021 -1.9514C548.289 15.9224 527.013 21.4288 505.906 18.711C479.017 15.2407 456.324 -2.81898 428.763 -1.34056C419.847 -0.862511 410.825 1.66054 403.68 7.34403C395.207 14.081 391.001 25.1027 391.772 36.2042C392.648 48.846 402.706 58.8231 407.062 70.3228C411.87 83.0178 411.843 97.855 406.336 110.222C400.076 124.289 384.618 133.381 369.823 136.099C353.966 139.012 335.479 134.851 323.438 123.776C304.916 106.752 314.522 81.9554 304.969 61.3284C296.85 43.7999 276.646 37.4701 258.54 39.7541C238.955 42.2241 222.726 51.8294 208.684 66.1089C195.74 79.273 184.691 94.6149 170.1 105.876C157.164 115.862 142.467 123.28 126.982 127.477C92.6998 136.754 51.636 130.345 22.8612 107.814C-3.7975 86.9396 -20.7259 53.8124 -28.2516 19.9947C-29.2167 15.6657 -36.344 -36.194 -33.1124 -36.194C-32.829 -36.194 -34.2456 -38 -33.9623 -38L574 -27.1553Z" fill="#698EFF"/>
</svg>
