<svg width="414" height="83" viewBox="0 0 414 83" fill="none" xmlns="http://www.w3.org/2000/svg">
<path opacity="0.05" d="M428.135 -48.2303C423.862 -44.8497 407.108 -44.7879 401.74 -42.8725C391.492 -39.2094 382.108 -33.0572 374.86 -24.9189C357.858 -5.8355 349.243 27.8826 319.564 31.0161C293.055 33.8142 274.809 11.1383 250.595 5.25089C200.401 -6.95649 157.931 23.4604 117.448 49.1198C68.1196 80.3929 10.8816 98.4877 -43.1609 65.2551C-83.0968 40.6902 -90 -0.460018 -90 -44.3201L390.035 -45.2381C394.228 -45.2381 400.257 -47.2153 404.318 -47.992C408.758 -48.8394 412.872 -49.8368 417.374 -49.828C421.399 -49.8191 425.328 -50.4723 429 -49.2895C428.832 -48.9012 428.541 -48.5481 428.135 -48.2303Z" fill="white"/>
</svg>
